<svg width="200" height="200" viewBox="0 0 200 200" fill="none" xmlns="http://www.w3.org/2000/svg">
  <!-- Background circle -->
  <circle cx="100" cy="100" r="80" fill="#F5F3ED" opacity="0.5"/>

  <!-- Empty folder/box icon -->
  <rect x="50" y="70" width="100" height="80" rx="8" stroke="#8B7355" stroke-width="6" fill="none"/>

  <!-- Folder tab -->
  <path d="M50 70 L50 55 C50 50 52 48 57 48 L80 48 L90 60 L143 60 C148 60 150 62 150 67 L150 70" stroke="#8B7355" stroke-width="6" fill="none" stroke-linejoin="round"/>

  <!-- Empty state lines inside box -->
  <line x1="75" y1="100" x2="125" y2="100" stroke="#8B7355" stroke-width="3" stroke-linecap="round" opacity="0.4"/>
  <line x1="85" y1="115" x2="115" y2="115" stroke="#8B7355" stroke-width="3" stroke-linecap="round" opacity="0.4"/>
  <line x1="90" y1="130" x2="110" y2="130" stroke="#8B7355" stroke-width="3" stroke-linecap="round" opacity="0.4"/>

  <!-- Decorative dots -->
  <circle cx="150" cy="45" r="5" fill="#D4A574" opacity="0.6"/>
  <circle cx="165" cy="60" r="3" fill="#D4A574" opacity="0.6"/>
  <circle cx="35" cy="60" r="4" fill="#D4A574" opacity="0.6"/>
  <circle cx="45" cy="160" r="3" fill="#D4A574" opacity="0.6"/>
  <circle cx="155" cy="160" r="4" fill="#D4A574" opacity="0.6"/>
</svg>
